<?xml version="1.0" standalone="no"?><!DOCTYPE svg PUBLIC "-//W3C//DTD SVG 1.1//EN"
  "http://www.w3.org/Graphics/SVG/1.1/DTD/svg11.dtd">
<svg t="1551834423711" class="icon" style="" viewBox="0 0 1024 1024" version="1.1" xmlns="http://www.w3.org/2000/svg"
     p-id="1809" xmlns:xlink="http://www.w3.org/1999/xlink" width="200" height="200">
  <defs>
    <style type="text/css"></style>
  </defs>
  <path
    d="M76.433113 853.355815c-20.142665 0-36.469868-16.329956-36.469868-36.472621 0-80.105426 65.168416-145.273842 145.273842-145.273842 20.142665 0 36.472621 16.327203 36.472621 36.472621 0 20.142665-16.327203 36.472621-36.472621 36.47262-39.883412 0-72.331354 32.447942-72.331354 72.331354-0.002753 20.139912-16.332709 36.469868-36.47262 36.469868zM947.572393 853.355815c-20.142665 0-36.472621-16.329956-36.472621-36.472621 0-39.883412-32.447942-72.331354-72.331354-72.331353-20.142665 0-36.472621-16.327203-36.47262-36.472621 0-20.142665 16.327203-36.472621 36.47262-36.472621 80.105426 0 145.273842 65.168416 145.273843 145.273843 0 20.145418-16.327203 36.475373-36.469868 36.475373z"
    fill="#A3382A" p-id="1810"></path>
  <path
    d="M678.009748 441.241905c109.742699 0 198.706823 88.964124 198.706823 198.706823s-88.964124 198.706823-198.706823 198.706823H345.993005c-109.742699 0-198.706823-88.964124-198.706823-198.706823s88.964124-198.706823 198.706823-198.706823h332.016743z"
    fill="#E94F3D" p-id="1811"></path>
  <path d="M350.989443 374.586945h50.377308v101.869524h-50.377308z" fill="#E97A6E" p-id="1812"></path>
  <path
    d="M421.454359 362.848757c0 25.004213-20.272049 45.276262-45.276262 45.276261s-45.273509-20.269296-45.273509-45.276261v-35.214565c0-25.006965 20.269296-45.276262 45.273509-45.276261s45.276262 20.269296 45.276262 45.276261v35.214565z"
    fill="#333E48" p-id="1813"></path>
  <path d="M622.638755 374.586945h50.377308v101.869524h-50.377308z" fill="#E97A6E" p-id="1814"></path>
  <path
    d="M602.548394 362.848757c0 25.004213 20.272049 45.276262 45.276262 45.276261 25.004213 0 45.273509-20.269296 45.273509-45.276261v-35.214565c0-25.006965-20.269296-45.276262-45.273509-45.276261s-45.276262 20.269296-45.276262 45.276261v35.214565z"
    fill="#333E48" p-id="1815"></path>
  <path
    d="M852.772209 607.250276a36.354248 36.354248 0 0 1-25.788777-10.68109c-14.243289-14.243289-14.243289-37.334265 0-51.577555 39.555822-39.558575 39.555822-103.917651 0-143.473473-14.243289-14.243289-14.243289-37.337018 0-51.577554 14.240536-14.243289 37.337018-14.243289 51.577554 0 67.995602 67.995602 67.995602 178.635733 0 246.628582a36.354248 36.354248 0 0 1-25.788777 10.68109z"
    fill="#A3382A" p-id="1816"></path>
  <path
    d="M960.998083 316.71085c35.360466 35.363219 35.360466 92.694247 0 128.057466-35.363219 35.363219-92.697 35.363219-128.060219-0.002753l-64.02598-64.02598c-70.726437-70.723685-70.726437-185.388494 0-256.114931l192.086199 192.086198z"
    fill="#E94F3D" p-id="1817"></path>
  <path
    d="M811.881251 349.736892c-17.109015 46.996798 7.124397 98.957 54.11569 116.063262 46.996798 17.103509 98.959753-7.12715 116.063262-54.121195l30.972409-85.090853c34.201512-93.985338-14.257054-197.908494-108.239638-232.118265l-92.911723 255.267051zM171.230544 607.250276a36.354248 36.354248 0 0 1-25.788777-10.68109c-67.995602-67.995602-67.995602-178.63298 0-246.628582 14.243289-14.243289 37.337018-14.243289 51.577554 0 14.243289 14.243289 14.243289 37.334265 0 51.577554-39.555822 39.555822-39.555822 103.917651 0 143.473473 14.243289 14.243289 14.243289 37.334265 0 51.577555a36.354248 36.354248 0 0 1-25.788777 10.68109z"
    fill="#A3382A" p-id="1818"></path>
  <path
    d="M63.00467 316.71085c-35.360466 35.363219-35.360466 92.694247 0 128.057466s92.697 35.363219 128.060218-0.002753l64.025981-64.02598c70.726437-70.723685 70.726437-185.388494 0-256.114931l-192.086199 192.086198z"
    fill="#E94F3D" p-id="1819"></path>
  <path
    d="M212.121502 349.736892c17.109015 46.996798-7.124397 98.957-54.11569 116.063262-46.996798 17.103509-98.957-7.12715-116.063262-54.121195l-30.975162-85.090853c-34.19876-93.985338 14.259806-197.908494 108.245144-232.118265l92.90897 255.267051z"
    fill="#A3382A" p-id="1820"></path>
  <path
    d="M876.716571 639.948728c0 109.742699-88.964124 198.706823-198.706823 198.706823H345.993005c-109.742699 0-198.706823-88.964124-198.706823-198.706823h729.430389z"
    fill="#E97A6E" p-id="1821"></path>
  <path
    d="M881.834135 929.530159c-20.142665 0-36.472621-16.329956-36.472621-36.47262 0-39.883412-32.447942-72.331354-72.331354-72.331354-20.142665 0-36.472621-16.327203-36.47262-36.472621 0-20.142665 16.329956-36.472621 36.47262-36.472621 80.105426 0 145.276595 65.171169 145.276596 145.273843 0 20.145418-16.327203 36.475373-36.472621 36.475373zM142.168618 929.530159c-20.142665 0-36.472621-16.329956-36.472621-36.47262 0-80.105426 65.171169-145.273842 145.276595-145.273843 20.142665 0 36.469868 16.329956 36.469868 36.472621s-16.329956 36.472621-36.469868 36.472621c-39.883412 0-72.331354 32.447942-72.331353 72.331353-0.002753 20.139912-16.329956 36.469868-36.472621 36.469868zM512.001376 675.890047c-36.557959 0-66.195233 29.640026-66.195232 66.197985v96.567519h132.393218V742.088032c0-36.557959-29.640026-66.197985-66.197986-66.197985z"
    fill="#A3382A" p-id="1822"></path>
</svg>
